# xmcd
#
# Track frame offsets:
#	150
#	19585
#	41935
#	63042
#	80525
#	93042
#	113480
#	135462
#	154105
#	169902
#
# Disc length: 2503 seconds
#
# Revision: 2
# Processed by: cddbd v1.5.2PL0 Copyright (c) Steve Scherf et al.
# Submitted via: EZCDAudioConverter 3.1.0.1
#
DISCID=6f09c50a
DTITLE=김목경 - Play The Blues
DYEAR=2000
DGENRE=Blues Rock
TTITLE0=Play The Blues
TTITLE1=부르지마
TTITLE2=남은 건 하나뿐
TTITLE3=그대 올 때
TTITLE4=Kim's 폴카 (Inst.)
TTITLE5=부는 바람에
TTITLE6=아름다웠네
TTITLE7=When I Come Home
TTITLE8=한번만
TTITLE9=누구의 눈물인가
EXTD=
EXTT0=
EXTT1=
EXTT2=
EXTT3=
EXTT4=
EXTT5=
EXTT6=
EXTT7=
EXTT8=
EXTT9=
PLAYORDER=
